<svg width="200" height="200" viewBox="0 0 200 200" fill="none" xmlns="http://www.w3.org/2000/svg">
<mask id="mask0_297_675" style="mask-type:luminance" maskUnits="userSpaceOnUse" x="0" y="0" width="200" height="200">
<path d="M0 0H200V200H0V0Z" fill="white"/>
</mask>
<g mask="url(#mask0_297_675)">
<g filter="url(#filter0_d_297_675)">
<path fill-rule="evenodd" clip-rule="evenodd" d="M125.473 136.557H171.898C174.318 136.557 175.8 134.288 174.543 132.495L159.163 110.225C157.714 108.07 156.424 104.094 156.424 101.601V80.088C156.424 60.5667 140.464 44.2926 119.283 40.5657V37.066C119.283 32.6133 115.124 29 109.999 29C104.873 29 100.714 32.6133 100.714 37.066V40.5657C79.5299 44.2926 63.5727 60.5667 63.5727 80.088V101.601C63.5727 104.065 62.2832 108.098 60.8302 110.225L45.4542 132.495C44.1938 134.288 45.7122 136.557 48.095 136.557H94.5208C94.5208 143.979 101.455 150 109.999 150C118.542 150 125.473 143.979 125.473 136.557ZM119.283 136.557H100.714C100.714 141.009 104.873 144.623 109.999 144.623C115.124 144.623 119.283 141.009 119.283 136.557ZM113.093 39.8399C112.062 39.7831 111.03 39.7547 109.999 39.7547C108.967 39.7547 107.935 39.7831 106.904 39.8399V37.066C106.904 35.5828 108.288 34.3774 109.999 34.3774C111.706 34.3774 113.093 35.5828 113.093 37.066V39.8399ZM166.384 131.179H53.609L66.119 112.971C68.1822 110.03 69.7623 105.044 69.7623 101.601V80.088C69.7623 60.7908 87.7827 45.1321 109.999 45.1321C132.211 45.1321 150.235 60.7908 150.235 80.088V101.601C150.235 105.072 151.815 110.001 153.878 112.971L166.384 131.179Z" fill="#FF3131"/>
<path d="M109.998 29.5C114.916 29.5 118.783 32.9535 118.783 37.0664V40.9854L119.196 41.0586C140.193 44.7532 155.924 60.8616 155.924 80.0879V101.601C155.924 102.918 156.263 104.59 156.774 106.191C157.223 107.594 157.817 108.98 158.467 110.061L158.748 110.504L158.752 110.51L174.131 132.779L174.134 132.782C174.637 133.5 174.592 134.293 174.181 134.925C173.763 135.566 172.95 136.057 171.898 136.057H124.973V136.557C124.973 143.639 118.334 149.5 109.998 149.5C101.662 149.5 95.0205 143.639 95.0205 136.557V136.057H48.0947C47.0638 136.057 46.2492 135.568 45.8262 134.924C45.4357 134.329 45.3682 133.596 45.7754 132.918L45.8633 132.783L45.8652 132.779L61.2412 110.51L61.2432 110.507C62.0064 109.389 62.7101 107.801 63.2227 106.191C63.7348 104.584 64.0723 102.904 64.0723 101.601V80.0879C64.0724 60.8615 79.8003 44.7532 100.801 41.0586L101.214 40.9854V37.0664C101.214 32.9537 105.081 29.5002 109.998 29.5ZM100.214 136.557C100.214 141.349 104.665 145.123 109.998 145.123C115.331 145.123 119.783 141.349 119.783 136.557V136.057H100.214V136.557ZM109.998 44.6318C87.5747 44.6321 69.2628 60.451 69.2627 80.0879V101.601C69.2627 103.255 68.8808 105.309 68.2383 107.321C67.636 109.207 66.8145 111.024 65.8945 112.412L65.71 112.684L65.707 112.688L53.1973 130.896L52.6592 131.68H167.334L166.797 130.896L154.29 112.688L154.289 112.686L154.102 112.409C152.186 109.496 150.734 104.86 150.734 101.601V80.0879C150.734 60.4508 132.418 44.6318 109.998 44.6318ZM109.998 33.877C108.079 33.8772 106.403 35.2438 106.403 37.0664V40.3682L106.932 40.3389C107.954 40.2826 108.976 40.2549 109.998 40.2549C111.02 40.2549 112.043 40.2826 113.065 40.3389L113.594 40.3682V37.0664C113.594 35.2433 111.913 33.877 109.998 33.877Z" stroke="black"/>
</g>
</g>
<defs>
<filter id="filter0_d_297_675" x="41" y="29" width="138" height="129" filterUnits="userSpaceOnUse" color-interpolation-filters="sRGB">
<feFlood flood-opacity="0" result="BackgroundImageFix"/>
<feColorMatrix in="SourceAlpha" type="matrix" values="0 0 0 0 0 0 0 0 0 0 0 0 0 0 0 0 0 0 127 0" result="hardAlpha"/>
<feOffset dy="4"/>
<feGaussianBlur stdDeviation="2"/>
<feComposite in2="hardAlpha" operator="out"/>
<feColorMatrix type="matrix" values="0 0 0 0 0 0 0 0 0 0 0 0 0 0 0 0 0 0 0.25 0"/>
<feBlend mode="normal" in2="BackgroundImageFix" result="effect1_dropShadow_297_675"/>
<feBlend mode="normal" in="SourceGraphic" in2="effect1_dropShadow_297_675" result="shape"/>
</filter>
</defs>
</svg>
